<?xml version="1.0" standalone="no"?>
<!DOCTYPE svg PUBLIC "-//W3C//DTD SVG 20010904//EN"
 "http://www.w3.org/TR/2001/REC-SVG-20010904/DTD/svg10.dtd">
<svg version="1.0" xmlns="http://www.w3.org/2000/svg"
 width="500.000000pt" height="500.000000pt" viewBox="0 0 500.000000 500.000000"
 preserveAspectRatio="xMidYMid meet">
<metadata>
Created by potrace 1.15, written by Peter Selinger 2001-2017
</metadata>
<g transform="translate(0.000000,500.000000) scale(0.100000,-0.100000)"
fill="#000000" stroke="none">
<path d="M1797 4076 c-101 -28 -171 -119 -170 -224 0 -75 18 -114 92 -200 60
-70 61 -72 48 -99 -45 -88 -68 -199 -117 -566 -28 -208 -48 -387 -45 -397 13
-42 74 -49 94 -11 5 9 32 188 61 396 28 209 58 405 66 435 21 76 78 185 130
249 59 72 59 113 0 135 -15 5 -31 -6 -73 -51 l-53 -57 -33 38 c-72 86 -84 138
-44 197 30 44 84 63 138 49 28 -8 55 -29 106 -85 37 -41 73 -77 81 -80 8 -3
54 13 104 35 93 42 172 64 273 75 49 5 72 2 120 -16 268 -100 447 -360 485
-706 12 -108 6 -193 -30 -473 -26 -202 -26 -216 4 -235 23 -15 34 -13 178 25
87 24 161 50 172 60 19 18 18 26 -33 404 -54 398 -64 454 -104 553 l-23 58 59
69 c72 83 90 123 90 196 0 97 -50 176 -138 216 -101 47 -193 25 -286 -70 l-61
-63 -80 33 c-207 83 -432 80 -627 -8 l-65 -29 -60 60 c-34 32 -75 66 -91 74
-45 23 -114 28 -168 13z"/>
<path d="M2099 3453 c-178 -91 -178 -332 1 -426 48 -25 63 -28 118 -24 50 4
73 12 112 38 57 39 96 95 105 152 9 51 30 77 62 77 44 0 60 -16 67 -68 11 -87
85 -170 170 -193 92 -25 208 19 260 98 133 203 -87 454 -303 346 -35 -17 -64
-41 -84 -70 -25 -35 -35 -42 -51 -36 -12 4 -37 8 -56 8 -19 0 -44 -4 -56 -8
-16 -6 -26 1 -51 36 -65 93 -189 122 -294 70z m171 -81 c49 -24 80 -75 80
-131 0 -153 -197 -209 -274 -79 -32 55 -33 92 -3 148 39 74 122 100 197 62z
m600 -3 c44 -25 80 -83 80 -130 0 -19 -10 -52 -23 -73 -56 -99 -197 -101 -258
-4 -26 42 -22 126 8 166 44 60 127 78 193 41z"/>
<path d="M2487 3223 c-2 -4 -7 -25 -11 -45 -6 -35 -5 -38 17 -38 21 0 27 -13
71 -147 40 -127 66 -235 66 -280 0 -9 -10 -8 -37 3 -52 22 -143 20 -191 -5
-39 -20 -102 -83 -102 -102 0 -20 79 -165 101 -186 28 -26 70 -43 105 -43 28
0 24 -11 -20 -64 l-23 -28 -49 21 c-27 12 -62 34 -77 49 -38 35 -127 213 -127
252 0 16 39 113 89 220 49 104 87 190 84 190 -3 0 -18 -10 -35 -21 -16 -12
-48 -27 -71 -34 -41 -12 -42 -13 -112 -161 -90 -192 -90 -210 -18 -356 65
-131 114 -188 201 -230 61 -30 75 -33 157 -33 83 0 95 3 153 34 84 45 131 100
194 223 46 90 52 110 52 163 0 54 -8 75 -70 205 -70 145 -71 146 -114 159
-105 31 -181 113 -198 213 -7 39 -24 59 -35 41z"/>
<path d="M817 1796 c-79 -29 -117 -88 -117 -179 0 -113 73 -187 186 -187 64 0
100 13 138 48 71 68 44 138 -32 82 -15 -11 -41 -23 -59 -26 -76 -15 -126 107
-70 171 15 18 28 24 40 20 19 -8 21 -23 8 -58 -13 -34 11 -67 48 -67 66 0 109
77 77 137 -29 57 -143 87 -219 59z"/>
<path d="M2177 1796 c-81 -30 -123 -103 -115 -200 8 -102 80 -166 186 -166
118 0 192 73 192 188 -1 65 -30 125 -77 156 -48 32 -132 42 -186 22z m113
-106 c16 -30 12 -132 -6 -158 -44 -64 -106 25 -84 122 11 51 37 78 61 65 10
-5 23 -18 29 -29z"/>
<path d="M3601 1801 c-76 -20 -131 -96 -131 -184 0 -112 81 -187 202 -187 95
0 168 55 168 128 0 44 -18 53 -102 50 -66 -3 -73 -5 -76 -25 -2 -13 5 -27 18
-36 17 -12 18 -16 6 -26 -19 -16 -51 4 -67 41 -17 41 -6 125 19 150 27 27 52
17 52 -21 0 -31 14 -41 59 -41 56 0 86 48 65 105 -15 38 -137 65 -213 46z"/>
<path d="M169 1784 c-9 -12 -15 -50 -17 -118 -3 -89 0 -106 20 -146 41 -79
129 -113 199 -76 22 11 30 11 50 0 38 -21 101 -17 139 9 65 44 75 67 78 188 5
138 -6 162 -71 157 l-42 -3 -8 -125 c-6 -86 -13 -130 -22 -140 -28 -28 -38 3
-39 125 -1 127 -5 135 -62 135 -51 0 -59 -19 -59 -148 0 -119 -7 -139 -40
-112 -11 9 -15 37 -16 109 -2 145 -6 155 -55 159 -29 2 -45 -2 -55 -14z"/>
<path d="M1127 1794 c-11 -12 -8 -59 5 -72 7 -7 31 -12 54 -12 l42 0 4 -126
c3 -111 5 -127 22 -140 28 -20 63 -17 86 6 18 18 20 33 20 140 l0 120 44 0
c50 0 69 16 64 57 l-3 28 -166 3 c-91 1 -168 -1 -172 -4z"/>
<path d="M1692 1788 c-8 -8 -12 -60 -12 -168 0 -139 2 -159 18 -173 23 -21 51
-22 79 -2 17 12 23 27 25 68 3 51 4 52 32 50 35 -3 46 -17 46 -60 0 -60 60
-92 106 -59 14 11 19 26 19 66 0 43 -4 55 -25 73 l-25 22 23 22 c26 27 30 87
6 121 -28 41 -66 52 -177 52 -67 0 -107 -4 -115 -12z"/>
<path d="M2515 1777 c-14 -22 -16 -49 -13 -172 4 -177 2 -175 122 -175 151 0
212 59 204 200 -4 74 -19 105 -72 144 -22 17 -45 22 -126 24 -96 4 -99 3 -115
-21z"/>
<path d="M2906 1784 c-13 -13 -16 -43 -16 -168 0 -135 2 -155 18 -169 24 -22
65 -22 85 1 9 9 19 41 23 70 5 41 10 52 25 52 28 0 47 -26 55 -75 7 -49 24
-65 68 -65 56 0 76 94 31 148 -24 29 -24 29 -5 47 29 27 28 104 -2 132 -41 37
-65 43 -167 43 -77 0 -103 -4 -115 -16z"/>
<path d="M3296 1784 c-13 -13 -16 -42 -16 -165 0 -136 2 -151 20 -169 23 -23
58 -26 86 -6 17 13 19 30 22 165 4 176 -1 191 -58 191 -22 0 -45 -7 -54 -16z"/>
<path d="M3912 1788 c-19 -19 -16 -261 3 -298 22 -42 87 -64 173 -58 122 9
142 39 142 213 0 64 -5 125 -10 136 -8 14 -21 19 -56 19 -58 0 -64 -16 -64
-160 0 -89 -3 -109 -16 -114 -24 -9 -31 -8 -48 10 -13 12 -16 39 -16 128 0
125 -5 136 -60 136 -20 0 -41 -5 -48 -12z"/>
<path d="M4310 1781 c-5 -11 -10 -85 -10 -169 0 -189 -6 -182 149 -182 122 0
151 8 151 44 0 36 -19 45 -100 48 -73 3 -75 4 -75 28 0 24 3 25 70 30 l70 5 0
30 0 30 -70 5 c-68 5 -70 6 -73 33 l-3 27 65 0 c83 0 116 12 116 43 0 42 -16
47 -152 47 -116 0 -128 -2 -138 -19z"/>
<path d="M4664 1785 c-4 -8 -3 -26 0 -39 6 -26 38 -36 117 -36 l49 0 -63 -56
c-34 -31 -72 -68 -84 -83 -30 -34 -31 -93 -3 -121 18 -18 33 -20 153 -20 150
0 171 7 165 55 l-3 30 -92 3 c-51 1 -93 4 -93 7 0 2 30 32 67 67 110 104 113
108 113 147 0 21 -5 42 -12 49 -8 8 -58 12 -160 12 -123 0 -150 -3 -154 -15z"/>
<path d="M1915 1100 l0 -110 43 0 43 0 -6 55 c-4 30 -5 55 -3 55 3 0 22 -25
42 -55 34 -51 39 -55 76 -55 l40 0 0 84 c0 47 5 88 10 91 6 3 10 15 10 26 0
16 -7 19 -51 19 l-52 0 6 -32 c3 -18 8 -41 12 -50 15 -37 -11 -16 -40 32 -29
49 -30 50 -80 50 l-50 0 0 -110z"/>
<path d="M2195 1100 l0 -110 93 0 92 0 0 45 c0 43 -1 45 -30 45 -23 0 -30 -4
-30 -20 0 -13 -7 -20 -20 -20 -24 0 -28 38 -5 46 8 4 15 12 15 20 0 8 -7 14
-15 14 -20 0 -19 36 1 44 11 4 18 -1 21 -14 4 -14 14 -20 34 -20 27 0 29 3 29
40 l0 40 -92 0 -93 0 0 -110z"/>
<path d="M2410 1198 c0 -7 10 -32 22 -54 l22 -41 -22 -37 c-34 -58 -30 -76 18
-76 22 0 40 4 40 9 0 5 5 22 11 38 l11 28 13 -35 c11 -33 15 -35 58 -38 42 -3
47 -1 47 18 0 12 -9 33 -20 47 -25 32 -25 50 0 91 31 51 27 62 -24 62 -42 0
-45 -2 -52 -32 l-7 -33 -14 33 c-12 29 -17 32 -58 32 -29 0 -45 -4 -45 -12z"/>
<path d="M2650 1175 c0 -31 3 -35 25 -35 14 0 25 5 25 10 0 6 5 10 10 10 6 0
10 -27 10 -60 0 -33 -4 -60 -10 -60 -5 0 -10 -11 -10 -25 0 -24 3 -25 55 -25
52 0 55 1 55 25 0 14 -4 25 -10 25 -6 0 -10 27 -10 60 0 33 4 60 10 60 6 0 10
-4 10 -10 0 -5 11 -10 25 -10 22 0 25 4 25 35 l0 35 -105 0 -105 0 0 -35z"/>
<path d="M2880 1191 c0 -11 5 -23 10 -26 6 -3 10 -35 10 -71 0 -83 18 -104 90
-104 72 0 90 21 90 104 0 36 5 68 10 71 6 3 10 15 10 26 0 16 -7 19 -50 19
l-49 0 6 -85 c5 -77 4 -85 -12 -85 -16 0 -17 8 -13 85 l6 85 -54 0 c-47 0 -54
-3 -54 -19z"/>
</g>
</svg>
